#!OML:ASF F:\VICON\USERDATA\INSTALL\rory3\rory3.ASF
:FULLY-SPECIFIED
:DEGREES
37
root 0.42752265426657243 17.887587939634777 6.377674862427626 -2.5524917559650344 -3.5925332753799415 -3.0188182041890617
lfemur 0.6041153711509599 -0.5469639619123712 -18.52416293616075
ltibia 32.44364968702034
lfoot -14.45032105033879 5.324717807679226
ltoes -14.244562431019435
rfemur -15.974863098901535 4.395719576449589 27.706757209998923
rtibia 26.56231599595496
rfoot -8.929684871724358 -10.075469895272695
rtoes -2.1546602179830483
lowerback 11.371864614459563 0.43045774900726963 0.15573919212023823
upperback 0.013883795861639861 0.5853917795877678 1.918367385658157
thorax -6.248093455954612 0.3678958935775476 1.9114035488522856
lowerneck -16.508729892204805 -3.5704684186277316 -1.6887585100900806
upperneck 21.1253232489712 -4.997794283904365 2.340112371755935
head 9.53034360798152 -2.2402396628517285 0.45221673383446354
lclavicle -1.3551357803080665e-15 7.26633351530146e-16
lhumerus -27.17832495631907 0.6947656672966782 80.02517738078711
lradius 26.390128715118628
lwrist 10.254850939393851
lhand -30.094943653119664 20.030753396540295
lfingers 7.125019999999999
lthumb -3.388470915494938 50.65037747538969
rclavicle -1.3551357800680682e-15 7.266333516744198e-16
rhumerus -28.46956696043059 -17.640491853624912 -78.41207154312941
rradius 20.75163617923243
rwrist 9.26238223686888
rhand -17.911327633449023 22.211373057649116
rfingers 7.125019999999999
rthumb 8.361096678609993 -7.6298351432119595
38
root 0.4319829250674094 17.898591344737163 6.692956941391491 -2.2555486058386927 -3.1440223430234924 -4.01341691418398
lfemur -1.0462293573574186 -0.5244785609639697 -17.24235311909159
ltibia 36.95877944648947
lfoot -12.752014602731567 3.9317251866914718
ltoes -12.751331928486605
rfemur -14.783643248114977 4.526560507044399 28.679577382641824
rtibia 25.68004060315424
rfoot -7.552408606835804 -9.877157633136205
rtoes -0.4315085910614398
lowerback 11.37133853221863 0.4133831844003587 1.1156682453941467
upperback -0.02690526062403574 0.7795531772745014 2.156147735969059
thorax -6.2962967723045615 0.44253021136341353 1.7621532576926044
lowerneck -16.542482078019088 -3.5137715714920694 -1.6682554866507702
upperneck 21.191062291176145 -4.890811285092572 2.2511080576635933
head 9.547949958406694 -2.202007495539316 0.4444703570360923
lclavicle -1.3551357803001777e-15 7.266333515347966e-16
lhumerus -25.913836149046926 -0.10329399461741984 79.79382710255489
lradius 27.194312950985108
lwrist 10.35733243681954
lhand -29.838231461778573 20.476175051468562
lfingers 7.125019999999999
lthumb -3.23044987571984 50.79033968134108
rclavicle -1.3551357800567806e-15 7.266333516811285e-16
rhumerus -29.11049208194217 -18.06382024520193 -78.62925279580423
rradius 20.4502649971004
rwrist 7.570206488983345
rhand -17.831063918079746 22.257108711396686
rfingers 7.125019999999999
rthumb 8.357543569550213 -7.437136930241784
39
root 0.4395226902343044 17.914795636951396 6.726282942225689 -1.9783413611184888 -2.8989568666382692 -4.909165495418859
lfemur -3.1306234762824596 -0.4187163407569334 -15.89356467171001
ltibia 42.03426950334426
lfoot -12.303639033796959 2.165178386177875
ltoes -11.266340195439657
rfemur -13.652431697229824 4.622007594254837 29.59163901839241
rtibia 24.447487470852607
rfoot -6.613680466481618 -9.843449318415148
rtoes 0.6517502931991614
lowerback 11.361642751667214 0.46290077670914626 1.9840764161078785
upperback 0.051061099368859025 1.0578965949053436 2.2495391734561196
thorax -6.26448051335361 0.5496115767671315 1.5671986957170487
lowerneck -16.611085420377638 -3.4803871874003427 -1.6679967603694545
upperneck 21.290255122164822 -4.833146603494438 2.124427712700298
head 9.58388476273436 -2.177672208000737 0.41360920500354603
lclavicle -1.3551357802926206e-15 7.2663335153901105e-16
lhumerus -24.896158884926592 -0.6189860283643864 79.55551147775165
lradius 28.064467954036232
lwrist 10.129891528951827
lhand -29.717161857795976 20.524037486032444
lfingers 7.125019999999999
lthumb -3.058218179454077 50.90735607650244
rclavicle -1.3551357800462441e-15 7.266333516871411e-16
rhumerus -29.804975126537446 -18.232282979076746 -78.80874472920713
rradius 20.923419415968322
rwrist 4.780542625067769
rhand -17.893134519067715 22.135419249251175
rfingers 7.125019999999999
rthumb 8.279210449048193 -7.360301799710139
40
root 0.43638462862756927 17.92255250895392 6.29166227827968 -1.9911487373205121 -3.0101426688401696 -5.3544122092131765
lfemur -4.643130773851583 -0.25980580754069393 -14.972627636285548
ltibia 46.40386861373139
lfoot -11.29350786347591 1.1674756359254652
ltoes -9.376067214483927
rfemur -12.35176734517617 4.785040032265147 30.31887736047915
rtibia 23.43379154970507
rfoot -6.158203601311663 -9.667233837266169
rtoes 2.5945321034270963
lowerback 11.359024172864473 0.6345314834306934 2.4501427307024564
upperback 0.11723965426871064 1.3888302421696688 2.3155397154873105
thorax -6.246596015167646 0.6926677399691348 1.28177919288447
lowerneck -16.666807198900404 -3.454652365027599 -1.6787929885860762
upperneck 21.401672556367345 -4.779074823281114 1.996995552528924
head 9.627522709098827 -2.1594289702502425 0.3788614900604447
lclavicle -1.3551357802944437e-15 7.26633351537331e-16
lhumerus -24.103775237547758 -0.7458512518039382 79.44206615665027
lradius 28.998966661343108
lwrist 9.705121467290017
lhand -29.723238693867053 20.26626673385517
lfingers 7.125019999999999
lthumb -2.8857449751840454 51.096660768894125
rclavicle -1.3551357800572245e-15 7.266333516799952e-16
rhumerus -30.44360310139084 -18.27260180531669 -78.70646599613974
rradius 21.633432045862946
rwrist 2.367081794063779
rhand -17.91072499572155 22.00108377795426
rfingers 7.125019999999999
rthumb 8.16720808585764 -7.3055461932555845
41
root 0.4588836171881765 17.920487126160936 6.715929307943326 -2.3224290894775907 -3.2468057580904897 -5.121953395569835
lfemur -5.960031361962887 -0.13669570510161044 -14.885464251317806
ltibia 49.70505965237868
lfoot -10.54065117017467 0.18604106344695737
ltoes -10.647019317258488
rfemur -11.24864164093161 4.888069335158729 30.358000429681287
rtibia 22.922132400938995
rfoot -6.356823846315077 -9.406956835247176
rtoes 4.075356167397451
lowerback 11.383015601281963 0.8284179471793717 2.4510871308712723
upperback 0.1107975181033326 1.5626552501708213 2.2715258164349184
thorax -6.255167047173591 0.7852882154434033 0.9768308946149302
lowerneck -16.65433395622363 -3.4201729073778746 -1.6728001927418106
upperneck 21.490356296425755 -4.696164028141601 1.8730754646162266
head 9.687781687893011 -2.1290324497691278 0.34186859937367575
lclavicle -1.3551357802962298e-15 7.266333515359633e-16
lhumerus -23.42260346930437 -0.27368343666032713 79.51579154040843
lradius 29.913347425964798
lwrist 9.488906519224617
lhand -29.79740111386206 19.874944028988168
lfingers 7.125019999999999
lthumb -2.9204521645542934 50.70020106398291
rclavicle -1.3551357800693144e-15 7.266333516724217e-16
rhumerus -31.314571475009892 -18.46154433707767 -78.53914505029374
rradius 22.15583361543238
rwrist 1.1317965309540412
rhand -17.969800470140555 21.879375565878682
rfingers 7.125019999999999
rthumb 7.96762562873865 -7.552788757624115
